<?xml version="1.0" standalone="no"?>
<!DOCTYPE svg PUBLIC "-//W3C//DTD SVG 20010904//EN"
 "http://www.w3.org/TR/2001/REC-SVG-20010904/DTD/svg10.dtd">
<svg version="1.0" xmlns="http://www.w3.org/2000/svg"
 width="279.000000pt" height="279.000000pt" viewBox="0 0 279.000000 279.000000"
 preserveAspectRatio="xMidYMid meet">
<metadata>
Created by potrace 1.11, written by Peter Selinger 2001-2013
</metadata>
<g transform="translate(0.000000,279.000000) scale(0.100000,-0.100000)"
fill="#000000" stroke="none">
<path d="M2413 2640 c-229 -91 -237 -420 -11 -520 45 -19 129 -28 174 -17 48
12 111 51 147 90 95 105 85 274 -22 384 -74 77 -188 102 -288 63z"/>
<path d="M1015 2388 c-101 -17 -225 -49 -291 -74 -372 -140 -653 -497 -711
-904 -10 -66 -10 -256 -1 -325 8 -58 43 -184 65 -235 8 -19 20 -46 26 -60 26
-59 94 -170 141 -230 159 -205 375 -345 630 -411 104 -27 441 -25 544 2 276
73 521 250 684 494 33 48 99 191 121 260 58 182 66 420 21 615 -88 383 -379
699 -754 818 -161 51 -353 71 -475 50z m260 -372 c138 -22 320 -121 421 -228
142 -150 207 -321 206 -534 -1 -360 -253 -674 -602 -749 -96 -21 -285 -13
-375 15 -186 59 -322 159 -420 310 -90 137 -134 292 -129 455 3 108 12 152 51
257 46 125 159 267 276 347 160 109 380 158 572 127z"/>
<path d="M1085 1617 c-22 -19 -29 -33 -29 -62 0 -47 25 -67 103 -83 110 -23
181 -97 195 -202 11 -83 90 -119 141 -64 21 23 24 34 21 89 -10 177 -159 323
-346 342 -50 5 -60 2 -85 -20z"/>
<path d="M793 1328 c-78 -38 -43 -216 67 -332 105 -111 297 -154 343 -77 23
38 21 55 -5 86 -16 18 -43 30 -86 40 -111 26 -150 64 -187 181 -14 45 -31 87
-39 94 -21 16 -67 21 -93 8z"/>
</g>
</svg>
