<?xml version="1.0" standalone="no"?>
<!DOCTYPE svg PUBLIC "-//W3C//DTD SVG 20010904//EN"
 "http://www.w3.org/TR/2001/REC-SVG-20010904/DTD/svg10.dtd">
<svg version="1.0" xmlns="http://www.w3.org/2000/svg"
 width="120.000000pt" height="120.000000pt" viewBox="0 0 120.000000 120.000000"
 preserveAspectRatio="xMidYMid meet">
<metadata>
Created by potrace 1.11, written by Peter Selinger 2001-2013
</metadata>
<g transform="translate(0.000000,120.000000) scale(0.100000,-0.100000)"
fill="#000000" stroke="none">
<path d="M125 1171 c-53 -24 -90 -63 -110 -114 -14 -37 -15 -99 -13 -484 l3
-441 30 -43 c17 -23 50 -53 74 -66 l44 -23 446 0 c496 0 496 0 554 69 47 56
48 76 45 546 l-3 440 -29 42 c-18 27 -46 51 -79 68 l-51 25 -435 0 c-401 0
-439 -2 -476 -19z m330 -345 c97 -46 145 -121 145 -228 0 -74 -22 -129 -70
-176 -47 -47 -86 -64 -162 -70 -59 -4 -75 -1 -122 22 -114 56 -173 186 -134
297 50 147 209 219 343 155z m571 5 c102 -47 136 -182 67 -269 -46 -58 -84
-72 -190 -72 l-93 0 0 -61 c0 -33 -5 -69 -10 -80 -12 -21 -50 -25 -68 -7 -16
16 -16 200 0 216 8 8 52 12 131 12 118 0 119 0 148 29 21 22 29 39 29 66 0 27
-8 44 -29 66 -29 29 -31 29 -145 29 -102 0 -118 2 -136 20 -20 20 -18 47 4 62
6 4 65 8 131 8 95 0 128 -4 161 -19z"/>
<path d="M314 760 c-77 -17 -124 -81 -124 -168 0 -63 30 -109 90 -139 56 -29
96 -29 151 0 96 51 118 177 46 255 -41 45 -106 65 -163 52z"/>
</g>
</svg>
